# Blender v2.74 (sub 0) OBJ File: ''
# www.blender.org
mtllib tree.mtl
o Box
v 0.185432 1.206359 0.351343
v 0.185432 1.206359 -0.176205
v 0.375000 0.017737 0.375000
v 0.375000 0.017737 -0.375000
v -0.342116 1.206359 -0.176205
v -0.342116 1.206359 0.351343
v -0.375000 0.017737 -0.375000
v -0.375000 0.017737 0.375000
v 0.334983 2.518091 0.924228
v 0.323089 2.449223 0.349935
v 0.821636 2.518091 0.924228
v 0.773697 2.449223 0.349935
v 0.282532 3.257302 0.239736
v 0.269581 3.251560 0.692042
v 0.683124 3.251560 0.692042
v 0.664384 3.257302 0.239736
v -0.167555 4.418324 0.129117
v -0.167555 4.418324 0.443789
v 0.147118 4.418324 0.443789
v 0.147118 4.418324 0.129117
v -0.562102 5.707006 -0.284901
v -0.562102 5.707006 -0.059927
v -0.337128 5.707006 -0.059927
v -0.337128 5.707006 -0.284901
v -0.173502 6.967234 -0.383924
v -0.173502 6.967234 -0.303359
v -0.092937 6.967234 -0.303359
v -0.092937 6.967234 -0.383924
v 0.636622 3.047829 1.599322
v 0.389252 3.047829 1.599322
v 0.554321 3.352239 1.431376
v 0.334119 3.352239 1.431376
v 0.579350 3.312344 2.224302
v 0.777415 3.312344 2.224302
v 0.711517 3.563679 2.085081
v 0.535206 3.563679 2.085081
v 0.153742 3.743153 2.673423
v 0.299944 3.743153 2.673423
v 0.251302 3.928677 2.570657
v 0.121157 3.928677 2.570657
v 0.456180 4.195657 3.358813
v 0.511022 4.195657 3.358813
v 0.493219 4.266092 3.319798
v 0.443145 4.266092 3.319798
v 0.308605 0.600134 0.000000
v -0.526600 0.600134 0.000000
v 0.000000 7.343915 -0.377294
v -0.108998 0.600134 0.417603
v -0.108998 0.600134 -0.417603
v -0.087163 1.860239 0.350276
v 0.231620 1.860239 0.669059
v 0.550402 1.860239 0.350276
v 0.231620 1.860239 0.031494
v 0.321367 2.860760 0.549576
v 0.599486 4.347823 3.569133
v 0.877605 2.860760 0.549576
v 0.599486 2.860760 0.271457
v 0.026474 3.801301 0.375874
v 0.258869 3.801301 0.608268
v 0.491264 3.801301 0.375874
v 0.258869 3.801301 0.143479
v -0.484655 5.033939 0.063644
v -0.299743 5.033939 0.248555
v -0.114832 5.033939 0.063644
v -0.299743 5.033939 -0.121268
v -0.396939 6.496382 -0.301577
v -0.299743 6.496382 -0.204382
v -0.202548 6.496382 -0.301577
v -0.299743 6.496382 -0.398772
v 0.564258 2.785544 1.311754
v 0.711984 3.041159 1.171962
v 0.441262 3.296774 1.032169
v 0.293536 3.041159 1.171962
v 0.638740 3.136549 1.956306
v 0.733033 3.315861 1.856980
v 0.560232 3.495173 1.757655
v 0.465939 3.315861 1.856980
v 0.451071 3.465360 2.449686
v 0.530213 3.615859 2.366321
v 0.385178 3.766358 2.282955
v 0.306037 3.615859 2.366321
v 0.339491 4.002041 3.097802
v 0.382953 4.084689 3.052021
v 0.303306 4.167337 3.006240
v 0.259844 4.084689 3.052021
v 0.204204 0.600134 0.313202
v 0.500000 0.017737 0.000000
v 0.204204 0.600134 -0.313202
v 0.273357 1.206359 0.087569
v -0.422199 0.600134 -0.313202
v -0.500000 0.017737 0.000000
v -0.422199 0.600134 0.313202
v -0.430041 1.206359 0.087569
v -0.116974 7.132031 -0.358364
v -0.074936 7.132031 -0.316326
v -0.032898 7.132031 -0.358364
v -0.074936 7.132031 -0.400402
v 0.000000 0.017737 0.500000
v -0.078342 1.206359 0.439268
v 0.000000 0.017737 -0.500000
v -0.078342 1.206359 -0.264130
v -0.007467 1.860239 0.589363
v 0.247988 2.449223 0.575239
v -0.007467 1.860239 0.111189
v 0.470706 1.860239 0.589363
v 0.539586 2.430419 0.996660
v 0.470706 1.860239 0.111189
v 0.848799 2.449223 0.575239
v 0.548393 2.449223 0.274834
v 0.314409 2.905860 0.844232
v 0.218890 3.257302 0.430662
v 0.390896 2.860760 0.340987
v 0.538264 4.244124 3.460857
v 0.558202 4.282040 3.439855
v 0.521664 4.319954 3.418853
v 0.501726 4.282040 3.439855
v 0.808076 2.860760 0.340987
v 0.728026 3.257302 0.430662
v 0.836200 2.905860 0.844232
v 0.473458 3.257302 0.176094
v 0.084573 3.801301 0.550170
v -0.220000 4.418324 0.286453
v 0.084573 3.801301 0.201578
v 0.433902 3.366306 0.736349
v 0.433165 3.801301 0.550170
v -0.010219 4.418324 0.496235
v 0.433165 3.801301 0.201578
v 0.199563 4.418324 0.286453
v -0.010219 4.418324 0.076671
v -0.438427 5.033939 0.202327
v -0.599598 5.707006 -0.172414
v -0.438427 5.033939 -0.075040
v -0.161060 5.033939 0.202327
v -0.449615 5.707006 -0.022431
v -0.161060 5.033939 -0.075040
v -0.299632 5.707006 -0.172414
v -0.449615 5.707006 -0.322396
v -0.372640 6.496382 -0.228681
v -0.372640 6.496382 -0.374473
v -0.226847 6.496382 -0.228681
v -0.226847 6.496382 -0.374473
v 0.714919 2.849448 1.276806
v 0.524390 2.997094 1.627313
v 0.382847 2.849448 1.276806
v 0.604437 3.232870 1.067117
v 0.634435 3.200034 1.515349
v 0.308837 3.232870 1.067117
v 0.432767 3.402974 1.403385
v 0.322722 3.200034 1.515349
v 0.734907 3.181376 1.931474
v 0.687552 3.270455 2.247505
v 0.522946 3.181376 1.931474
v 0.664386 3.450345 1.782486
v 0.775664 3.438012 2.154691
v 0.475705 3.450345 1.782486
v 0.614191 3.605568 2.061878
v 0.526080 3.438012 2.154691
v 0.531785 3.502985 2.428845
v 0.233612 3.712233 2.690551
v 0.353884 3.502985 2.428845
v 0.472596 3.728734 2.303797
v 0.298652 3.835915 2.622040
v 0.314234 3.728734 2.303797
v 0.179461 3.959597 2.553529
v 0.114421 3.835915 2.622040
v 0.383817 4.022703 3.086357
v 0.286120 4.022703 3.086357
v 0.351312 4.146675 3.017685
v 0.264346 4.146675 3.017685
vt 0.500000 0.500000
vt 0.000000 0.500000
vt 0.000000 0.000000
vt 0.500000 0.000000
vt 1.000000 0.000000
vt 1.000000 0.500000
vt 1.000000 1.000000
vt 0.500000 1.000000
vt 0.000000 1.000000
vn 0.982400 0.187000 0.000400
vn 0.699100 0.126000 0.703800
vn 0.675900 0.270900 0.685400
vn 0.950000 0.312200 0.000000
vn 0.675900 0.270900 -0.685400
vn 0.688300 0.224900 -0.689700
vn 0.705900 0.092200 -0.702300
vn 0.985700 -0.168400 -0.006400
vn 0.679800 -0.268500 0.682500
vn -0.998400 0.056000 0.001100
vn -0.702100 0.132800 -0.699600
vn -0.707300 0.017700 -0.706700
vn -0.999000 -0.045600 0.000000
vn -0.707300 0.017700 0.706700
vn -0.706400 0.033200 0.707000
vn -0.700600 0.072300 0.709900
vn -0.949800 0.312700 0.008700
vn -0.644600 0.409800 -0.645500
vn 0.168700 0.985000 -0.035900
vn -0.895800 0.444300 -0.010400
vn -0.645600 0.391400 0.655800
vn 0.023900 0.217600 0.975800
vn 0.703000 -0.071500 0.707600
vn 0.978800 -0.205000 0.004000
vn 0.690400 -0.194500 -0.696800
vn 0.008700 0.049900 -0.998700
vn -0.671200 0.285300 -0.684100
vn -0.001400 0.052100 0.998600
vn -0.002600 0.139600 0.990200
vn -0.007100 -0.182400 0.983200
vn -0.000700 0.192900 -0.981200
vn -0.002600 0.139600 -0.990200
vn 0.008700 0.326500 -0.945200
vn -0.880400 0.474300 -0.007200
vn -0.724100 0.080400 0.685000
vn -0.868100 -0.134000 0.478000
vn -0.949100 0.307700 -0.068200
vn -0.659000 0.346400 -0.667600
vn -0.580800 0.560800 -0.590100
vn -0.018900 -0.396200 0.918000
vn 0.615400 -0.544400 0.570100
vn 0.795800 -0.386400 0.466300
vn -0.022700 -0.572200 0.819800
vn 0.908200 -0.417500 -0.029200
vn 0.703500 -0.034400 -0.709800
vn 0.701800 -0.072600 -0.708600
vn 0.962600 -0.260100 -0.076000
vn 0.016900 0.389700 -0.920800
vn 0.008800 0.186100 -0.982500
vn -0.991900 -0.066900 -0.107900
vn -0.993500 -0.066400 0.092300
vn -0.927300 0.123200 0.353500
vn -0.955400 -0.286300 -0.071800
vn -0.665400 -0.321000 -0.673900
vn -0.699900 -0.129800 -0.702400
vn 0.313000 0.469800 0.825400
vn 0.102800 -0.809600 0.577900
vn 0.841200 -0.540200 -0.024700
vn 0.934900 -0.004200 -0.354800
vn 0.719000 0.475800 -0.506700
vn -0.023500 0.963000 -0.268400
vn -0.759800 0.608600 0.228800
vn -0.846200 0.137800 0.514700
vn -0.673000 -0.342400 0.655600
vn 0.984500 0.141200 -0.103800
vn 0.704600 -0.001400 -0.709600
vn 0.690400 0.156500 -0.706300
vn 0.924800 0.373600 -0.071300
vn 0.742000 0.579000 0.337900
vn 0.955400 0.240300 0.171700
vn 0.003500 -0.120700 -0.992700
vn 0.004700 -0.146100 -0.989300
vn -0.937600 -0.347400 -0.015300
vn -0.711100 -0.122300 0.692400
vn -0.697900 -0.096400 0.709700
vn -0.924600 -0.380800 0.008400
vn -0.637000 -0.414000 -0.650300
vn -0.661600 -0.318900 -0.678700
vn -0.008000 0.223800 0.974600
vn -0.043400 0.729400 0.682700
vn 0.648600 0.427000 0.630100
vn 0.615900 0.472300 0.630500
vn -0.011300 0.272900 0.962000
vn 0.908800 0.416500 -0.024000
vn 0.675300 0.234400 -0.699300
vn 0.685500 0.171900 -0.707500
vn 0.898500 0.438900 -0.009200
vn 0.003400 -0.082300 -0.996600
vn 0.008800 -0.204300 -0.978900
vn -0.959600 -0.281100 0.009000
vn -0.708700 0.055100 0.703300
vn -0.692600 0.224400 0.685600
vn -0.999100 0.042400 0.000900
vn -0.701900 -0.125600 -0.701100
vn -0.645900 -0.406200 -0.646300
vn -0.011200 0.369600 0.929100
vn 0.621500 0.477000 0.621400
vn 0.689500 0.241200 0.683000
vn -0.001600 0.299000 0.954200
vn 0.933400 0.358700 -0.011000
vn 0.703000 0.037900 -0.710200
vn 0.703800 -0.106200 -0.702400
vn 0.997400 0.071300 -0.003400
vn 0.009400 -0.292800 -0.956100
vn 0.002100 -0.191600 -0.981500
vn -0.944800 0.327700 -0.003700
vn -0.660400 0.340700 0.669100
vn -0.689100 0.178400 -0.702300
vn 0.005500 0.199200 0.979900
vn 0.706000 -0.020300 0.707900
vn 0.982100 -0.188600 0.002200
vn 0.690800 -0.194900 -0.696200
vn -0.000900 -0.048100 -0.998800
vn 0.005900 -0.753400 0.657600
vn 0.805500 -0.336800 0.487500
vn 0.853300 -0.478800 0.206700
vn 0.031400 -0.878300 0.477100
vn -0.710200 -0.553200 0.435300
vn -0.752300 -0.509900 0.417100
vn 0.944200 0.292700 0.151300
vn 0.678800 0.734100 0.016900
vn 0.705500 0.657300 -0.264900
vn 0.974700 0.190700 -0.116500
vn -0.055800 0.997100 -0.050700
vn -0.863800 0.503800 -0.008400
vn -0.813700 0.581200 0.011700
vn -0.032900 0.966000 -0.256500
vn -0.989400 -0.098300 0.106500
vn -0.966900 -0.031000 0.253300
vn 0.031700 -0.916700 0.398300
vn 0.837400 -0.544600 0.046200
vn 0.813700 -0.293800 0.501500
vn 0.015600 -0.830600 0.556600
vn -0.706000 -0.679500 0.199600
vn -0.716900 -0.539300 0.441900
vn 0.962600 0.107200 -0.249000
vn 0.716700 0.595500 -0.362800
vn 0.689600 0.712600 -0.129200
vn 0.932900 0.324700 0.156000
vn -0.030200 0.956900 -0.288800
vn -0.807400 0.588000 0.048700
vn -0.828000 0.349300 -0.438700
vn -0.028000 0.883200 -0.468100
vn -0.955400 -0.000800 0.295300
vn -0.959000 -0.244500 -0.143600
vn -0.001200 -0.709900 0.704300
vn 0.655400 -0.054000 0.753300
vn 0.821900 -0.301600 0.483200
vn 0.021500 -0.762500 0.646600
vn -0.719800 -0.601900 0.345900
vn -0.673900 -0.736400 0.060100
vn 0.786300 0.442800 0.430900
vn 0.641100 0.766600 0.036900
vn 0.706600 0.669600 -0.229000
vn 0.956500 0.283000 0.071000
vn -0.021400 0.802200 -0.596700
vn -0.702600 0.127000 -0.700200
vn -0.842200 0.395800 -0.366100
vn -0.032400 0.864100 -0.502200
vn -0.828300 -0.375200 -0.416000
vn -0.983400 -0.180300 -0.021800
vn 0.044700 -0.829600 0.556600
vn 0.840000 -0.538300 0.067500
vn -0.686600 -0.418600 0.594400
vn 0.942400 0.051900 -0.330300
vn 0.709200 0.518300 -0.478000
vn -0.033400 0.928500 -0.369800
vn -0.792300 0.603400 0.090900
vn -0.913700 0.066200 0.401000
vn 0.000000 -1.000000 0.000000
usemtl b0b0b0
s 1
f 45/1/1 86/2/2 3/3/3 87/4/4
f 45/1/1 87/4/4 4/5/5 88/6/6
f 45/1/1 88/6/6 2/7/7 89/8/8
f 45/1/1 89/8/8 1/9/9 86/2/2
f 46/1/10 90/2/11 7/3/12 91/4/13
f 46/1/10 91/4/13 8/5/14 92/6/15
f 46/1/10 92/6/15 6/7/16 93/8/17
f 46/1/10 93/8/17 5/9/18 90/2/11
f 47/1/19 94/2/20 26/3/21 95/4/22
f 47/1/19 95/4/22 27/5/23 96/6/24
f 47/1/19 96/6/24 28/7/25 97/8/26
f 47/1/19 97/8/26 25/9/27 94/2/20
f 48/1/28 92/2/15 8/3/14 98/4/29
f 48/1/28 98/4/29 3/5/3 86/6/2
f 48/1/28 86/6/2 1/7/9 99/8/30
f 48/1/28 99/8/30 6/9/16 92/2/15
f 49/1/31 88/2/6 4/3/5 100/4/32
f 49/1/31 100/4/32 7/5/12 90/6/11
f 49/1/31 90/6/11 5/7/18 101/8/33
f 49/1/31 101/8/33 2/9/7 88/2/6
f 50/3/34 93/3/17 6/3/16 102/3/35
f 50/3/34 102/3/35 9/3/36 103/3/37
f 50/3/34 103/3/37 10/3/38 104/3/39
f 50/3/34 104/3/39 5/3/18 93/3/17
f 51/3/40 99/3/30 1/3/9 105/3/41
f 51/3/40 105/3/41 11/3/42 106/3/43
f 51/3/40 106/3/43 9/3/36 102/3/35
f 51/3/40 102/3/35 6/3/16 99/3/30
f 52/3/44 89/3/8 2/3/7 107/3/45
f 52/3/44 107/3/45 12/3/46 108/3/47
f 52/3/44 108/3/47 11/3/42 105/3/41
f 52/3/44 105/3/41 1/3/9 89/3/8
f 53/3/48 101/3/33 5/3/18 104/3/39
f 53/3/48 104/3/39 10/3/38 109/3/49
f 53/3/48 109/3/49 12/3/46 107/3/45
f 53/3/48 107/3/45 2/3/7 101/3/33
f 54/3/50 103/3/37 9/3/36 110/3/51
f 54/3/50 110/3/51 14/3/52 111/3/53
f 54/3/50 111/3/53 13/3/54 112/3/55
f 54/3/50 112/3/55 10/3/38 103/3/37
f 55/3/56 113/3/57 42/3/58 114/3/59
f 55/3/56 114/3/59 43/3/60 115/3/61
f 55/3/56 115/3/61 44/3/62 116/3/63
f 55/3/56 116/3/63 41/3/64 113/3/57
f 56/3/65 108/3/47 12/3/46 117/3/66
f 56/3/65 117/3/66 16/3/67 118/3/68
f 56/3/65 118/3/68 15/3/69 119/3/70
f 56/3/65 119/3/70 11/3/42 108/3/47
f 57/3/71 109/3/49 10/3/38 112/3/55
f 57/3/71 112/3/55 13/3/54 120/3/72
f 57/3/71 120/3/72 16/3/67 117/3/66
f 57/3/71 117/3/66 12/3/46 109/3/49
f 58/3/73 111/3/53 14/3/52 121/3/74
f 58/3/73 121/3/74 18/3/75 122/3/76
f 58/3/73 122/3/76 17/3/77 123/3/78
f 58/3/73 123/3/78 13/3/54 111/3/53
f 59/3/79 124/3/80 15/3/69 125/3/81
f 59/3/79 125/3/81 19/3/82 126/3/83
f 59/3/79 126/3/83 18/3/75 121/3/74
f 59/3/79 121/3/74 14/3/52 124/3/80
f 60/3/84 118/3/68 16/3/67 127/3/85
f 60/3/84 127/3/85 20/3/86 128/3/87
f 60/3/84 128/3/87 19/3/82 125/3/81
f 60/3/84 125/3/81 15/3/69 118/3/68
f 61/3/88 120/3/72 13/3/54 123/3/78
f 61/3/88 123/3/78 17/3/77 129/3/89
f 61/3/88 129/3/89 20/3/86 127/3/85
f 61/3/88 127/3/85 16/3/67 120/3/72
f 62/3/90 122/3/76 18/3/75 130/3/91
f 62/3/90 130/3/91 22/3/92 131/3/93
f 62/3/90 131/3/93 21/3/94 132/3/95
f 62/3/90 132/3/95 17/3/77 122/3/76
f 63/3/96 126/3/83 19/3/82 133/3/97
f 63/3/96 133/3/97 23/3/98 134/3/99
f 63/3/96 134/3/99 22/3/92 130/3/91
f 63/3/96 130/3/91 18/3/75 126/3/83
f 64/3/100 128/3/87 20/3/86 135/3/101
f 64/3/100 135/3/101 24/3/102 136/3/103
f 64/3/100 136/3/103 23/3/98 133/3/97
f 64/3/100 133/3/97 19/3/82 128/3/87
f 65/3/104 129/3/89 17/3/77 132/3/95
f 65/3/104 132/3/95 21/3/94 137/3/105
f 65/3/104 137/3/105 24/3/102 135/3/101
f 65/3/104 135/3/101 20/3/86 129/3/89
f 66/3/106 131/3/93 22/3/92 138/3/107
f 66/3/106 138/3/107 26/3/21 94/3/20
f 66/3/106 94/3/20 25/3/27 139/3/108
f 66/3/106 139/3/108 21/3/94 131/3/93
f 67/3/109 134/3/99 23/3/98 140/3/110
f 67/3/109 140/3/110 27/3/23 95/3/22
f 67/3/109 95/3/22 26/3/21 138/3/107
f 67/3/109 138/3/107 22/3/92 134/3/99
f 68/3/111 136/3/103 24/3/102 141/3/112
f 68/3/111 141/3/112 28/3/25 96/3/24
f 68/3/111 96/3/24 27/3/23 140/3/110
f 68/3/111 140/3/110 23/3/98 136/3/103
f 69/3/113 137/3/105 21/3/94 139/3/108
f 69/3/113 139/3/108 25/3/27 97/3/26
f 69/3/113 97/3/26 28/3/25 141/3/112
f 69/3/113 141/3/112 24/3/102 137/3/105
f 70/3/114 106/3/43 11/3/42 142/3/115
f 70/3/114 142/3/115 29/3/116 143/3/117
f 70/3/114 143/3/117 30/3/118 144/3/119
f 70/3/114 144/3/119 9/3/36 106/3/43
f 71/3/120 119/3/70 15/3/69 145/3/121
f 71/3/120 145/3/121 31/3/122 146/3/123
f 71/3/120 146/3/123 29/3/116 142/3/115
f 71/3/120 142/3/115 11/3/42 119/3/70
f 72/3/124 124/3/80 14/3/52 147/3/125
f 72/3/124 147/3/125 32/3/126 148/3/127
f 72/3/124 148/3/127 31/3/122 145/3/121
f 72/3/124 145/3/121 15/3/69 124/3/80
f 73/3/128 110/3/51 9/3/36 144/3/119
f 73/3/128 144/3/119 30/3/118 149/3/129
f 73/3/128 149/3/129 32/3/126 147/3/125
f 73/3/128 147/3/125 14/3/52 110/3/51
f 74/3/130 143/3/117 29/3/116 150/3/131
f 74/3/130 150/3/131 34/3/132 151/3/133
f 74/3/130 151/3/133 33/3/134 152/3/135
f 74/3/130 152/3/135 30/3/118 143/3/117
f 75/3/136 146/3/123 31/3/122 153/3/137
f 75/3/136 153/3/137 35/3/138 154/3/139
f 75/3/136 154/3/139 34/3/132 150/3/131
f 75/3/136 150/3/131 29/3/116 146/3/123
f 76/3/140 148/3/127 32/3/126 155/3/141
f 76/3/140 155/3/141 36/3/142 156/3/143
f 76/3/140 156/3/143 35/3/138 153/3/137
f 76/3/140 153/3/137 31/3/122 148/3/127
f 77/3/144 149/3/129 30/3/118 152/3/135
f 77/3/144 152/3/135 33/3/134 157/3/145
f 77/3/144 157/3/145 36/3/142 155/3/141
f 77/3/144 155/3/141 32/3/126 149/3/129
f 78/3/146 151/3/133 34/3/132 158/3/147
f 78/3/146 158/3/147 38/3/148 159/3/149
f 78/3/146 159/3/149 37/3/150 160/3/151
f 78/3/146 160/3/151 33/3/134 151/3/133
f 79/3/152 154/3/139 35/3/138 161/3/153
f 79/3/152 161/3/153 39/3/154 162/3/155
f 79/3/152 162/3/155 38/3/148 158/3/147
f 79/3/152 158/3/147 34/3/132 154/3/139
f 80/3/156 156/3/143 36/3/142 163/3/157
f 80/3/156 163/3/157 40/3/158 164/3/159
f 80/3/156 164/3/159 39/3/154 161/3/153
f 80/3/156 161/3/153 35/3/138 156/3/143
f 81/3/160 157/3/145 33/3/134 160/3/151
f 81/3/160 160/3/151 37/3/150 165/3/161
f 81/3/160 165/3/161 40/3/158 163/3/157
f 81/3/160 163/3/157 36/3/142 157/3/145
f 82/3/162 159/3/149 38/3/148 166/3/163
f 82/3/162 166/3/163 42/3/58 113/3/57
f 82/3/162 113/3/57 41/3/64 167/3/164
f 82/3/162 167/3/164 37/3/150 159/3/149
f 83/3/165 162/3/155 39/3/154 168/3/166
f 83/3/165 168/3/166 43/3/60 114/3/59
f 83/3/165 114/3/59 42/3/58 166/3/163
f 83/3/165 166/3/163 38/3/148 162/3/155
f 84/3/167 164/3/159 40/3/158 169/3/168
f 84/3/167 169/3/168 44/3/62 115/3/61
f 84/3/167 115/3/61 43/3/60 168/3/166
f 84/3/167 168/3/166 39/3/154 164/3/159
f 85/3/169 165/3/161 37/3/150 167/3/164
f 85/3/169 167/3/164 41/3/64 116/3/63
f 85/3/169 116/3/63 44/3/62 169/3/168
f 85/3/169 169/3/168 40/3/158 165/3/161
f 3/3/170 98/3/170 8/3/170 91/3/170 7/3/170 100/3/170 4/3/170 87/3/170
